# xmcd CD database file
#
# Track frame offsets:
#	150
#	18445
#	45280
#	64882
#	80261
#	96556
#	111427
#	118796
#	135132
#	185490
#	202591
#	223342
#	252495
#
# Disc length: 3620 seconds
#
# Revision: 0
# Processed by: cddbd v1.5.2PL0 Copyright (c) Steve Scherf et al.
# Submitted via: CDex 1.51
#
DISCID=b50e220d
DTITLE=Cappelletti,Arrigo - Homage To Paul Bley
DYEAR=2015
DGENRE=Jazz
TTITLE0=Homage to Paul Bley
TTITLE1=Dialogue
TTITLE2=Breaks
TTITLE3=Ashes
TTITLE4=Bluesy
TTITLE5=Hot Music
TTITLE6=Changes
TTITLE7=Coral
TTITLE8=Pannonica and Crepuscule with Nellie
TTITLE9=Monk´s Fantasy
TTITLE10=Refugee Blues
TTITLE11=Durate
TTITLE12=Lyric Tango
EXTD=YEAR: 2015
EXTT0=
EXTT1=
EXTT2=
EXTT3=
EXTT4=
EXTT5=
EXTT6=
EXTT7=
EXTT8=
EXTT9=
EXTT10=
EXTT11=
EXTT12=
PLAYORDER=
